<svg width="100vw" height="100vh" viewBox="0 0 1920 1080" xmlns="http://www.w3.org/2000/svg">
  <!-- Background -->
  <rect width="100%" height="100%" fill="white"/>
  
  <!-- Base Line -->
  <g stroke="#767522" stroke-width="5" fill="none" stroke-linecap="round">
    <path d="M0,175 L1920,175" />
  </g>
  
  <!-- Tree Structures -->
  
  <!-- Tree 1 -->
  <g stroke="#3EC2A0" stroke-width="5" fill="none" stroke-linecap="round">
    <path d="M100,175 L100,215 L80,245 L80,375" />
    <circle cx="80" cy="375" r="10" fill="white" stroke="#3EC2A0" stroke-width="6"/>
  </g>
  
  <!-- Tree 2 -->
  <g stroke="#3EC2A0" stroke-width="5" fill="none" stroke-linecap="round">
    <path d="M70,175 L70,215 L50,245 L50,475" />
    <path d="M50,475 L120,575 " />
    <path d="M0,375 L15,375 L25,385 L25,455 L50,475" />
    <circle cx="50" cy="475" r="10" fill="white" stroke="#3EC2A0" stroke-width="6"/>

  </g>
  
  <!-- Tree 3 -->
  <g stroke="#3EC2A0" stroke-width="5" fill="none" stroke-linecap="round">
    <path d="M450,175 L450,195 L430,215 L150,215 L120,260 L120,575 L120,650" />
    <path d="M430,215 L470,245 L455,315" />
    <circle cx="120" cy="650" r="10" fill="white" stroke="#3EC2A0" stroke-width="6"/>
    <circle cx="150" cy="215" r="10" fill="white" stroke="#3EC2A0" stroke-width="6"/>
    <circle cx="430" cy="215" r="10" fill="white" stroke="#3EC2A0" stroke-width="6"/>
    <circle cx="470" cy="245" r="10" fill="white" stroke="#3EC2A0" stroke-width="6"/>
    <circle cx="455" cy="315" r="10" fill="white" stroke="#3EC2A0" stroke-width="6"/>
    <circle cx="120" cy="575" r="10" fill="white" stroke="#3EC2A0" stroke-width="6"/>
  </g>
  
  <!-- Additional Trees -->
  <g stroke="#3EC2A0" stroke-width="5" fill="none" stroke-linecap="round">
    <!-- Tree 4 -->
    <path d="M1850,175 L1850,250 L1870,290 L1870,450" />
    <path d="M1870,450 L1830,510 L1830,600" />
    <circle cx="1870" cy="450" r="10" fill="white" stroke="#3EC2A0" stroke-width="6"/>

  </g>
  <g stroke="#3EC2A0" stroke-width="5" fill="none" stroke-linecap="round">    
    <!-- Tree 5 -->
    <path d="M1100,175 L1070,215 L1070,300" />
    <path d="M1070,215 L1150,315 L1150,415" />
    <circle cx="1070" cy="300" r="10" fill="white" stroke="#3EC2A0" stroke-width="6"/>
    <circle cx="1150" cy="415" r="10" fill="white" stroke="#3EC2A0" stroke-width="6"/>
    <circle cx="1070" cy="215" r="10" fill="white" stroke="#3EC2A0" stroke-width="6"/>
  </g>

  #Tree 6
  <g stroke="#3EC2A0" stroke-width="5" fill="none" stroke-linecap="round">
    <path d="M1920,600 L1830,600" />
    <path d="M1830,600 L1760,670" />
    <path d="M1760,670 L1760,800" />
    <path d="M1760,670 L1620,670" />
    <path d="M1620,670 L1580,640" />
    <path d="M1760,800 L1730, 830" />
    <path d="M1760,800 L1760, 850" />
    <path d="M1760,850 L1780,870" />
    <path d="M1780,870 L1780,910" />
    <path d="M1780,910 L1850,980" />
    <path d="M1920,980 L1850,980" />
    
    <circle cx="1830" cy="600" r="10" fill="white" stroke="#3EC2A0" stroke-width="6"/>

    <circle cx="1580" cy="640" r="10" fill="white" stroke="#3EC2A0" stroke-width="6"/>
    <circle cx="1760" cy="800" r="10" fill="white" stroke="#3EC2A0" stroke-width="6"/>
    <circle cx="1730" cy="830" r="10" fill="white" stroke="#3EC2A0" stroke-width="6"/>
    <circle cx="1780" cy="910" r="10" fill="white" stroke="#3EC2A0" stroke-width="6"/>
  </g>
  #Tree
  <g stroke="#3EC2A0" stroke-width="5" fill="none" stroke-linecap="round">  
    <path d="M1920,800 L1850,800" />
    <path d="M1850,800 L1760,670" />
    <path d="M1850,800 L1815,835" />
    
    <circle cx="1815" cy="835" r="10" fill="white" stroke="#3EC2A0" stroke-width="6"/>
    <circle cx="1850" cy="800" r="10" fill="white" stroke="#3EC2A0" stroke-width="6"/>
    <circle cx="1760" cy="670" r="10" fill="white" stroke="#3EC2A0" stroke-width="6"/>
  </g>
  #Tree
  <g stroke="#3EC2A0" stroke-width="5" fill="none" stroke-linecap="round">  
  <path d="M1920,650 L1880,650" />
  <path d="M1880,650 L1860,670" />

  <circle cx="1860" cy="670" r="10" fill="white" stroke="#3EC2A0" stroke-width="6"/>
  </g>
  #Tree
  <g stroke="#3EC2A0" stroke-width="5" fill="none" stroke-linecap="round">  
  <path d="M1830,175 L1830,250" />
  <path d="M1830,250 L1850,290" />
  <path d="M1850,290 L1850,320" />
    
  <circle cx="1850" cy="320" r="10" fill="white" stroke="#3EC2A0" stroke-width="6"/>
  </g>

  #Tree
  <g stroke="#3EC2A0" stroke-width="5" fill="none" stroke-linecap="round">  
  <path d="M1800,175 L1800,195" />
  <path d="M1800,195 L1785,210" />
  <path d="M1785,210 L1650,210" />
  <path d="M1650,210 L1620,240" />
  <path d="M1620,240 L1500,240" />

  <circle cx="1650" cy="210" r="10" fill="white" stroke="#3EC2A0" stroke-width="6"/>
  <circle cx="1500" cy="240" r="10" fill="white" stroke="#3EC2A0" stroke-width="6"/>
    
  </g>
  #Tree
  <g stroke="#3EC2A0" stroke-width="5" fill="none" stroke-linecap="round">  
  <path d="M1815,175 L1815,195" />
  <path d="M1815,195 L1787,223" />
  <path d="M1787,223 L1730,223" />
  <path d="M1730,223 L1710,243" />

  <circle cx="1710" cy="243" r="10" fill="white" stroke="#3EC2A0" stroke-width="6"/>
  </g>
</svg>
