<svg width="100vw" height="100vh" viewBox="0 0 1920 1080" xmlns="http://www.w3.org/2000/svg">
  <!-- Background -->
  <rect width="100%" height="100%" fill="white"/>
  #Line
  <g stroke="#767522" stroke-width="5" fill="none" stroke-linecap="round">
    <path d="M0,175 L1920,175" />
  </g>
  #Tree1
  <g stroke="#3EC2A0" stroke-width="5" fill="none" stroke-linecap="round">
    <path d="M100,175 L100,215 L80,245 L80,375" />
    <circle cx="80" cy="375" r="10" fill="white" stroke="#3EC2A0" stroke-width="6"/>
  </g>
  #Tree2
  <g stroke="#3EC2A0" stroke-width="5" fill="none" stroke-linecap="round">
    #Branch1
    <path d="M70,175 L70,215 L50,245 L50,475" />

    #Branch2
    <path d="M50,475 L120,575 " />
    #Branch 3
    <path d="M0,375 L15,375 " />
    <path d="M15,375 L25,385 " />
    <path d="M25,385 L25,455 " />
    <path d="M25,455 L50,475 " />


  </g>
  #Tree3
    <g stroke="#3EC2A0" stroke-width="5" fill="none" stroke-linecap="round">
    #Branch1
    <path d="M450,175 L450,195 L430, 215" />
    #Branch2
    <path d="M430,215 L150,215" />
    <path d="M150,215 L120,260" />
    <path d="M120,260 L120,575" />
    <path d="M120,575 L120,650" />
    #Branch3
    <path d="M430,215 L470,245" />
    <path d="M470,245 L455,315" />

      
    <circle cx="120" cy="650" r="10" fill="white" stroke="#3EC2A0" stroke-width="6"/>  
    <circle cx="150" cy="215" r="10" fill="white" stroke="#3EC2A0" stroke-width="6"/>  
    #Circle1
    <circle cx="50" cy="475" r="10" fill="white" stroke="#3EC2A0" stroke-width="6"/>
    #Circle2
    <circle cx="120" cy="575" r="10" fill="white" stroke="#3EC2A0" stroke-width="6"/>
    #Circle1
    <circle cx="430" cy="215" r="10" fill="white" stroke="#3EC2A0" stroke-width="6"/>
    #Circle3
    <circle cx="470" cy="245" r="10" fill="white" stroke="#3EC2A0" stroke-width="6"/>
    <circle cx="455" cy="315" r="10" fill="white" stroke="#3EC2A0" stroke-width="6"/>

  </g>

</svg>
