<svg width="100vw" height="100vh" viewBox="0 0 1920 1080" xmlns="http://www.w3.org/2000/svg">
  <!-- Background -->
  <rect width="100%" height="100%" fill="white"/>
  
  #Tree1
  <g stroke="#3EC2A0" stroke-width="5" fill="none" stroke-linecap="round">
    <path d="M100,0 L100,40 L80,70 L80,200" />
    <circle cx="80" cy="200" r="10" fill="white" stroke="#3EC2A0" stroke-width="6"/>
  </g>
  #Tree2
  <g stroke="#3EC2A0" stroke-width="5" fill="none" stroke-linecap="round">
    #Branch1
    <path d="M70,0 L70,40 L50,70 L50,300" />

    #Branch2
    <path d="M50,300 L120,400 " />
    #Branch 3
    <path d="M0,200 L15,200 " />
    <path d="M15,200 L25,210 " />
    <path d="M25,210 L25,280 " />
    <path d="M25,280 L50,300 " />


  </g>
  #Tree3
    <g stroke="#3EC2A0" stroke-width="5" fill="none" stroke-linecap="round">
    #Branch1
    <path d="M450,0 L450,20 L430, 40" />
    #Branch2
    <path d="M430,40 L150,40" />
    <path d="M150,40 L120,85" />
    <path d="M120,85 L120,400" />
    <path d="M120,400 L120,475" />
    #Branch3
    <path d="M430,40 L470,70" />
    <path d="M470,70 L455,140" />

      
    <circle cx="120" cy="475" r="10" fill="white" stroke="#3EC2A0" stroke-width="6"/>  
    <circle cx="150" cy="40" r="10" fill="white" stroke="#3EC2A0" stroke-width="6"/>  
    #Circle1
    <circle cx="50" cy="300" r="10" fill="white" stroke="#3EC2A0" stroke-width="6"/>
    #Circle2
    <circle cx="120" cy="400" r="10" fill="white" stroke="#3EC2A0" stroke-width="6"/>
    #Circle1
    <circle cx="430" cy="40" r="10" fill="white" stroke="#3EC2A0" stroke-width="6"/>
    #Circle3
    <circle cx="470" cy="70" r="10" fill="white" stroke="#3EC2A0" stroke-width="6"/>
    <circle cx="455" cy="140" r="10" fill="white" stroke="#3EC2A0" stroke-width="6"/>

  </g>

</svg>
